<svg width="26" height="25" viewBox="0 0 26 25" fill="none" xmlns="http://www.w3.org/2000/svg">
<g clip-path="url(#clip0_49_93)">
<path d="M13.0953 0.13739C6.27532 0.13739 0.746704 5.66601 0.746704 12.486C0.746704 19.306 6.27532 24.8347 13.0953 24.8347C19.9153 24.8347 25.444 19.306 25.444 12.486C25.444 5.66601 19.9153 0.13739 13.0953 0.13739ZM20.5045 15.9159C20.5045 17.074 19.5622 18.016 18.4044 18.016H7.78625C6.62822 18.016 5.68616 17.0737 5.68616 15.9159V9.05612C5.68616 7.89809 6.62822 6.95603 7.78625 6.95603H18.4042C19.5622 6.95603 20.5042 7.89809 20.5042 9.05612L20.5045 15.9159Z" fill="#393939"/>
<path d="M15.7041 12.4339L18.6711 9.52095C18.917 9.27947 18.9205 8.88459 18.6791 8.63871C18.4376 8.39284 18.0427 8.389 17.7971 8.63075L13.9067 12.4503C13.4597 12.8897 12.7311 12.8897 12.2838 12.4503L8.39347 8.63048C8.14759 8.38927 7.75271 8.39311 7.51122 8.63844C7.26974 8.88431 7.27358 9.27919 7.51918 9.52068L10.4861 12.4339L7.51946 15.347C7.27358 15.5882 7.27001 15.9834 7.5115 16.229C7.63361 16.3533 7.79497 16.4156 7.9566 16.4156C8.11439 16.4156 8.27217 16.3563 8.39374 16.2367L11.3769 13.3079L11.4101 13.3405C11.8747 13.7966 12.485 14.0246 13.0956 14.0246C13.7061 14.0246 14.3164 13.7966 14.781 13.3402L14.8139 13.3079L17.7974 16.2367C17.9189 16.3561 18.0767 16.4156 18.2345 16.4156C18.3959 16.4156 18.5575 16.353 18.6796 16.229C18.9211 15.9831 18.9175 15.5882 18.6716 15.347L15.7041 12.4339Z" fill="#393939"/>
</g>
<defs>
<clipPath id="clip0_49_93">
<rect width="25" height="25" fill="white" transform="translate(0.609375)"/>
</clipPath>
</defs>
</svg>
