<svg width="20" height="20" viewBox="0 0 20 20" fill="none" xmlns="http://www.w3.org/2000/svg">
<path d="M7.06508 0.32661C7.23059 0.491801 7.33977 0.704993 7.37708 0.935837C7.41439 1.16668 7.37793 1.40341 7.27289 1.61233C6.49069 3.16761 6.21868 4.92989 6.49553 6.64863C6.77238 8.36737 7.58399 9.95511 8.81499 11.1861C10.046 12.4171 11.6337 13.2287 13.3525 13.5056C15.0712 13.7824 16.8335 13.5104 18.3887 12.7282C18.5976 12.623 18.8342 12.5864 19.0651 12.6235C19.2959 12.6606 19.5092 12.7695 19.6745 12.9349C19.8398 13.1002 19.9488 13.3134 19.9859 13.5443C20.023 13.7751 19.9864 14.0118 19.8812 14.2206C19.134 15.7047 18.0454 16.9903 16.7048 17.9719C15.3642 18.9534 13.8097 19.6028 12.1693 19.8667C10.5289 20.1306 8.84922 20.0015 7.26838 19.49C5.68755 18.9784 4.25065 18.0991 3.07577 16.9242C1.90089 15.7493 1.02156 14.3124 0.510038 12.7316C-0.00148401 11.1508 -0.130595 9.47111 0.133313 7.83067C0.397221 6.19022 1.04662 4.63582 2.02813 3.29517C3.00965 1.95453 4.29528 0.865923 5.77936 0.118805C5.98841 0.0135017 6.22537 -0.0231025 6.45645 0.0142132C6.68752 0.0515289 6.90092 0.160859 7.06619 0.32661H7.06508ZM4.24583 4.07932C2.87824 5.66171 2.16024 7.70308 2.23614 9.79318C2.31203 11.8833 3.17619 13.8672 4.65494 15.3462C6.13369 16.8253 8.11745 17.6898 10.2075 17.7661C12.2976 17.8424 14.3391 17.1248 15.9218 15.7575C14.3426 15.9471 12.741 15.7755 11.2378 15.2556C9.73463 14.7358 8.36919 13.8812 7.24452 12.7566C6.11985 11.6319 5.26535 10.2665 4.7455 8.76329C4.22565 7.26012 4.05403 5.6585 4.24361 4.07932H4.24583Z" fill="#BFBFBF"/>
</svg>
