<svg width="20" height="20" viewBox="0 0 20 20" fill="none" xmlns="http://www.w3.org/2000/svg">
<path d="M10 0C9.3 0 8.75 0.55 8.75 1.25C8.75 1.95 9.3 2.5 10 2.5C10.7 2.5 11.25 1.95 11.25 1.25C11.25 0.55 10.7 0 10 0ZM3.75 2.5C3.05 2.5 2.5 3.05 2.5 3.75C2.5 4.45 3.05 5 3.75 5C4.45 5 5 4.45 5 3.75C5 3.05 4.45 2.5 3.75 2.5ZM16.25 2.5C15.55 2.5 15 3.05 15 3.75C15 4.45 15.55 5 16.25 5C16.95 5 17.5 4.45 17.5 3.75C17.5 3.05 16.95 2.5 16.25 2.5ZM10 5C7.25 5 5 7.25 5 10C5 12.75 7.25 15 10 15C12.75 15 15 12.75 15 10C15 7.25 12.75 5 10 5ZM1.25 8.75C0.55 8.75 0 9.3 0 10C0 10.7 0.55 11.25 1.25 11.25C1.95 11.25 2.5 10.7 2.5 10C2.5 9.3 1.95 8.75 1.25 8.75ZM18.75 8.75C18.05 8.75 17.5 9.3 17.5 10C17.5 10.7 18.05 11.25 18.75 11.25C19.45 11.25 20 10.7 20 10C20 9.3 19.45 8.75 18.75 8.75ZM3.75 15C3.05 15 2.5 15.55 2.5 16.25C2.5 16.95 3.05 17.5 3.75 17.5C4.45 17.5 5 16.95 5 16.25C5 15.55 4.45 15 3.75 15ZM16.25 15C15.55 15 15 15.55 15 16.25C15 16.95 15.55 17.5 16.25 17.5C16.95 17.5 17.5 16.95 17.5 16.25C17.5 15.55 16.95 15 16.25 15ZM10 17.5C9.3 17.5 8.75 18.05 8.75 18.75C8.75 19.45 9.3 20 10 20C10.7 20 11.25 19.45 11.25 18.75C11.25 18.05 10.7 17.5 10 17.5Z" fill="#393939"/>
</svg>
