<svg width="26" height="25" viewBox="0 0 26 25" fill="none" xmlns="http://www.w3.org/2000/svg">
<g clip-path="url(#clip0_56_80)">
<path d="M13.0954 0.13739C6.27536 0.13739 0.746738 5.66601 0.746738 12.486C0.746738 19.306 6.27536 24.8347 13.0954 24.8347C19.9154 24.8347 25.444 19.306 25.444 12.486C25.444 5.66601 19.9154 0.13739 13.0954 0.13739ZM20.5046 15.9159C20.5046 17.074 19.5622 18.016 18.4045 18.016H7.78628C6.62825 18.016 5.68619 17.0737 5.68619 15.9159V9.05612C5.68619 7.89809 6.62825 6.95603 7.78628 6.95603H18.4042C19.5622 6.95603 20.5043 7.89809 20.5043 9.05612L20.5046 15.9159Z" fill="#BFBFBF"/>
<path d="M15.7042 12.4339L18.6712 9.52095C18.9171 9.27947 18.9206 8.88459 18.6791 8.63871C18.4377 8.39284 18.0428 8.389 17.7972 8.63075L13.9068 12.4503C13.4598 12.8897 12.7312 12.8897 12.2839 12.4503L8.39356 8.63048C8.14768 8.38927 7.7528 8.39311 7.51132 8.63844C7.26983 8.88431 7.27367 9.27919 7.51927 9.52068L10.4862 12.4339L7.51955 15.347C7.27367 15.5882 7.27011 15.9834 7.51159 16.229C7.6337 16.3533 7.79506 16.4156 7.95669 16.4156C8.11448 16.4156 8.27227 16.3563 8.39383 16.2367L11.377 13.3079L11.4102 13.3405C11.8748 13.7966 12.4851 14.0246 13.0956 14.0246C13.7062 14.0246 14.3165 13.7966 14.7811 13.3402L14.814 13.3079L17.7975 16.2367C17.919 16.3561 18.0768 16.4156 18.2346 16.4156C18.3959 16.4156 18.5576 16.353 18.6797 16.229C18.9212 15.9831 18.9176 15.5882 18.6717 15.347L15.7042 12.4339Z" fill="#BFBFBF"/>
</g>
<defs>
<clipPath id="clip0_56_80">
<rect width="25" height="25" fill="white" transform="translate(0.609375)"/>
</clipPath>
</defs>
</svg>
