<svg width="26" height="25" viewBox="0 0 26 25" fill="none" xmlns="http://www.w3.org/2000/svg">
<g clip-path="url(#clip0_56_67)">
<path d="M13.1094 0.390625C6.41992 0.390625 1 5.81055 1 12.5C1 19.1895 6.41992 24.6094 13.1094 24.6094C19.7988 24.6094 25.2188 19.1895 25.2188 12.5C25.2188 5.81055 19.7988 0.390625 13.1094 0.390625ZM19.0566 8.68652L17.0693 18.0518C16.9229 18.7158 16.5273 18.877 15.9756 18.5645L12.9482 16.333L11.4883 17.7393C11.3271 17.9004 11.1904 18.0371 10.8779 18.0371L11.0928 14.9561L16.7031 9.8877C16.9473 9.67285 16.6494 9.55078 16.3271 9.76562L9.39355 14.1309L6.40527 13.1982C5.75586 12.9932 5.74121 12.5488 6.54199 12.2363L18.2168 7.73437C18.7588 7.53906 19.2324 7.86621 19.0566 8.68652Z" fill="#BFBFBF"/>
</g>
<defs>
<clipPath id="clip0_56_67">
<rect width="25" height="25" fill="white" transform="translate(0.609375)"/>
</clipPath>
</defs>
</svg>
