<svg width="25" height="25" viewBox="0 0 25 25" fill="none" xmlns="http://www.w3.org/2000/svg">
<path d="M8.49121 20.13C8.49121 20.2334 8.37891 20.3161 8.2373 20.3161C8.07617 20.3316 7.96387 20.2489 7.96387 20.13C7.96387 20.0266 8.07617 19.9439 8.21777 19.9439C8.36426 19.9284 8.49121 20.0111 8.49121 20.13ZM6.97266 19.8973C6.93848 20.0007 7.03613 20.1196 7.18262 20.1506C7.30957 20.2023 7.45605 20.1506 7.48535 20.0472C7.51465 19.9439 7.42188 19.825 7.27539 19.7784C7.14844 19.7423 7.00684 19.7939 6.97266 19.8973ZM9.13086 19.8095C8.98926 19.8456 8.8916 19.9439 8.90625 20.0628C8.9209 20.1661 9.04785 20.2334 9.19434 20.1972C9.33594 20.161 9.43359 20.0628 9.41895 19.9594C9.4043 19.8611 9.27246 19.7939 9.13086 19.8095ZM12.3438 0C5.57129 0 0.390625 5.44346 0.390625 12.6135C0.390625 18.3465 3.79883 23.2523 8.66699 24.9789C9.29199 25.0978 9.51172 24.6894 9.51172 24.3534C9.51172 24.0329 9.49707 22.265 9.49707 21.1794C9.49707 21.1794 6.0791 21.9548 5.36133 19.6389C5.36133 19.6389 4.80469 18.1345 4.00391 17.7468C4.00391 17.7468 2.88574 16.9352 4.08203 16.9507C4.08203 16.9507 5.29785 17.0541 5.9668 18.2845C7.03613 20.2799 8.82812 19.7061 9.52637 19.3649C9.63867 18.5378 9.95605 17.9639 10.3076 17.6228C7.57812 17.3023 4.82422 16.8835 4.82422 11.9105C4.82422 10.4889 5.19531 9.77549 5.97656 8.86566C5.84961 8.52964 5.43457 7.14422 6.10352 5.35558C7.12402 5.01957 9.47266 6.75134 9.47266 6.75134C10.4492 6.46185 11.499 6.31194 12.5391 6.31194C13.5791 6.31194 14.6289 6.46185 15.6055 6.75134C15.6055 6.75134 17.9541 5.0144 18.9746 5.35558C19.6436 7.14939 19.2285 8.52964 19.1016 8.86566C19.8828 9.78066 20.3613 10.494 20.3613 11.9105C20.3613 16.899 17.4854 17.2971 14.7559 17.6228C15.2051 18.0312 15.5859 18.8066 15.5859 20.0214C15.5859 21.7635 15.5713 23.9192 15.5713 24.3431C15.5713 24.6791 15.7959 25.0875 16.416 24.9686C21.2988 23.2523 24.6094 18.3465 24.6094 12.6135C24.6094 5.44346 19.1162 0 12.3438 0ZM5.13672 17.8295C5.07324 17.8812 5.08789 18.0001 5.1709 18.0984C5.24902 18.1811 5.36133 18.2173 5.4248 18.1501C5.48828 18.0984 5.47363 17.9795 5.39062 17.8812C5.3125 17.7985 5.2002 17.7623 5.13672 17.8295ZM4.60938 17.4108C4.5752 17.478 4.62402 17.5607 4.72168 17.6124C4.7998 17.6641 4.89746 17.6486 4.93164 17.5762C4.96582 17.509 4.91699 17.4263 4.81934 17.3746C4.72168 17.3436 4.64355 17.3591 4.60938 17.4108ZM6.19141 19.2512C6.11328 19.3184 6.14258 19.4734 6.25488 19.5717C6.36719 19.6906 6.50879 19.7061 6.57227 19.6234C6.63574 19.5562 6.60645 19.4011 6.50879 19.3028C6.40137 19.1839 6.25488 19.1684 6.19141 19.2512ZM5.63477 18.4912C5.55664 18.5429 5.55664 18.6773 5.63477 18.7962C5.71289 18.9151 5.84473 18.9668 5.9082 18.9151C5.98633 18.8479 5.98633 18.7135 5.9082 18.5946C5.83984 18.4757 5.71289 18.424 5.63477 18.4912Z" fill="#BFBFBF"/>
</svg>
