<svg width="26" height="25" viewBox="0 0 26 25" fill="none" xmlns="http://www.w3.org/2000/svg">
<g clip-path="url(#clip0_49_78)">
<path d="M13.1094 0C20.0129 0 25.6094 5.59644 25.6094 12.5C25.6094 19.4036 20.0129 25 13.1094 25C6.20582 25 0.609375 19.4036 0.609375 12.5C0.609375 5.59644 6.20582 0 13.1094 0Z" fill="#393939" stroke="#393939" stroke-width="0.00256"/>
<path d="M18.9058 18.5097C17.4123 18.3206 15.8551 18.3272 14.2879 18.4764C12.0993 18.6448 8.90069 19.6549 7.72222 17.6347C5.82906 14.4005 6.7628 10.2599 7.20396 6.5957L13.7829 0.0181618C20.1495 0.356199 25.252 5.45796 25.5911 11.8243L18.9058 18.5097Z" fill="#393939" stroke="#393939" stroke-width="0.00256"/>
<path d="M16.0013 19.6549H10.2174C7.86677 19.6549 5.95447 17.7426 5.95447 15.392V9.60808C5.95447 7.25759 7.86677 5.34514 10.2174 5.34514H16.0013C18.3518 5.34514 20.2643 7.2575 20.2643 9.60808V15.392C20.2642 17.7426 18.3519 19.6549 16.0013 19.6549ZM18.8247 9.60803C18.8247 8.04875 17.5606 6.78469 16.0013 6.78469H10.2174C8.65813 6.78469 7.39407 8.04875 7.39407 9.60803V15.392C7.39407 16.9512 8.65813 18.2154 10.2174 18.2154H16.0013C17.5606 18.2154 18.8247 16.9512 18.8247 15.392V9.60803Z" fill="#D6D5D7" stroke="#393939" stroke-width="0.00256"/>
<path d="M13.1094 16.2011C11.0687 16.2011 9.40833 14.5408 9.40833 12.5C9.40833 10.4595 11.0687 8.79911 13.1094 8.79911C15.1501 8.79911 16.8103 10.4593 16.8103 12.5C16.8103 14.5408 15.1501 16.2011 13.1094 16.2011ZM13.1094 10.2387C11.8604 10.2387 10.8479 11.251 10.8479 12.5C10.8479 13.7491 11.8604 14.7616 13.1094 14.7616C14.3584 14.7616 15.3708 13.7491 15.3708 12.5C15.3708 11.2511 14.3584 10.2387 13.1094 10.2387Z" fill="#D6D5D7" stroke="#393939" stroke-width="0.00256"/>
<path d="M17.7041 16.1732C17.7041 15.6834 17.3071 15.2863 16.8173 15.2863C16.3275 15.2863 15.9304 15.6834 15.9304 16.1732C15.9304 16.663 16.3275 17.0601 16.8173 17.0601C17.3072 17.0601 17.7041 16.6631 17.7041 16.1732Z" fill="#D6D5D7" stroke="#393939" stroke-width="0.00256"/>
<path d="M16.0013 19.6549H13.0813V18.2154H16.0013C17.5606 18.2154 18.8247 16.9512 18.8247 15.392V9.60803C18.8247 8.04875 17.5606 6.78469 16.0013 6.78469H13.0813V5.34514H16.0013C18.3518 5.34514 20.2642 7.2575 20.2642 9.60808V15.392C20.2642 17.7426 18.3519 19.6549 16.0013 19.6549Z" fill="#D6D5D7" stroke="#393939" stroke-width="0.00256"/>
<path d="M13.1093 16.2011C13.0999 16.2011 13.0907 16.2004 13.0813 16.2004V14.7609C13.0906 14.761 13.0999 14.7616 13.1093 14.7616C14.3583 14.7616 15.3707 13.7491 15.3707 12.5C15.3707 11.2511 14.3583 10.2387 13.1093 10.2387C13.0999 10.2387 13.0906 10.2392 13.0813 10.2393V8.79979C13.0907 8.79969 13.0999 8.79911 13.1093 8.79911C15.15 8.79911 16.8103 10.4594 16.8103 12.5C16.8103 14.5408 15.15 16.2011 13.1093 16.2011Z" fill="#D6D5D7" stroke="#393939" stroke-width="0.00256"/>
</g>
<defs>
<clipPath id="clip0_49_78">
<rect width="25" height="25" fill="white" transform="matrix(1 0 0 -1 0.609375 25)"/>
</clipPath>
</defs>
</svg>
