<svg width="25" height="19" viewBox="0 0 25 19" fill="none" xmlns="http://www.w3.org/2000/svg">
<path d="M10.8945 18.4834L8.51172 17.8438C8.26172 17.7788 8.12109 17.5367 8.19141 17.3054L13.5234 0.314501C13.5938 0.0832332 13.8555 -0.0468547 14.1055 0.0181893L16.4883 0.657788C16.7383 0.722832 16.8789 0.96494 16.8086 1.19621L11.4766 18.1871C11.4023 18.4184 11.1445 18.5521 10.8945 18.4834ZM6.44141 14.429L8.14062 12.7524C8.32031 12.5753 8.30859 12.2934 8.10938 12.1308L4.57031 9.25082L8.10938 6.37082C8.30859 6.20821 8.32422 5.92635 8.14062 5.74929L6.44141 4.0726C6.26562 3.89915 5.96875 3.8883 5.77734 4.05453L0.148438 8.93283C-0.0507813 9.10266 -0.0507813 9.39536 0.148438 9.5652L5.77734 14.4471C5.96875 14.6133 6.26562 14.6061 6.44141 14.429ZM19.2227 14.4507L24.8516 9.56881C25.0508 9.39897 25.0508 9.10628 24.8516 8.93644L19.2227 4.05091C19.0352 3.8883 18.7383 3.89553 18.5586 4.06898L16.8594 5.74567C16.6797 5.92274 16.6914 6.20459 16.8906 6.3672L20.4297 9.25082L16.8906 12.1308C16.6914 12.2934 16.6758 12.5753 16.8594 12.7524L18.5586 14.429C18.7344 14.6061 19.0312 14.6133 19.2227 14.4507Z" fill="#BFBFBF"/>
</svg>
