<svg width="22" height="20" viewBox="0 0 22 20" fill="none" xmlns="http://www.w3.org/2000/svg">
<path d="M18.8332 12.3125C18.8332 12.3125 16.5207 15.6602 16.5207 16.9375C16.5207 18.2148 17.5563 19.25 18.8332 19.25C20.1102 19.25 21.1457 18.2148 21.1457 16.9375C21.1457 15.6602 18.8332 12.3125 18.8332 12.3125ZM18.4947 8.59299L10.9902 1.08856C10.7644 0.862734 10.4685 0.75 10.1725 0.75C9.87662 0.75 9.58069 0.862734 9.35522 1.08856L6.40751 4.03628L3.29358 0.921992C3.06775 0.696162 2.70173 0.696162 2.47626 0.921992L1.65894 1.73932C1.43347 1.96515 1.43347 2.33117 1.65894 2.55664L4.77322 5.67057L1.34928 9.09451C-0.00534186 10.4488 -0.00534186 12.6449 1.34928 13.9995L5.58368 18.2339C6.26081 18.9111 7.14859 19.25 8.03602 19.25C8.9238 19.25 9.81122 18.9114 10.4883 18.2339L18.4943 10.228C18.946 9.77634 18.946 9.04465 18.4947 8.59299ZM14.2953 11.1573H2.71546C2.7646 11.0186 2.84445 10.869 2.98393 10.7299L3.45907 10.2547L6.40787 7.30594L8.52525 9.42332C8.97655 9.87462 9.7086 9.87462 10.1599 9.42332C10.6112 8.97202 10.6112 8.23997 10.1599 7.78867L8.04252 5.67129L10.1725 3.54126L16.042 9.41067L14.2953 11.1573Z" fill="#BFBFBF"/>
</svg>
