<svg width="26" height="20" viewBox="0 0 26 20" fill="none" xmlns="http://www.w3.org/2000/svg">
<path d="M16.9167 13.0833H18.7917C19.1042 13.0833 19.4167 12.775 19.4167 12.4667V5.99167C19.4167 5.68333 19.1042 5.375 18.7917 5.375H16.9167C16.6042 5.375 16.2917 5.68333 16.2917 5.99167V12.4667C16.2917 12.775 16.6042 13.0833 16.9167 13.0833ZM21.6042 13.0833H23.4792C23.7917 13.0833 24.1042 12.775 24.1042 12.4667V1.36667C24.1042 1.05833 23.7917 0.75 23.4792 0.75H21.6042C21.2917 0.75 20.9792 1.05833 20.9792 1.36667V12.4667C20.9792 12.775 21.2917 13.0833 21.6042 13.0833ZM7.54166 13.0833H9.41666C9.72916 13.0833 10.0417 12.775 10.0417 12.4667V9.075C10.0417 8.76667 9.72916 8.45833 9.41666 8.45833H7.54166C7.22916 8.45833 6.91666 8.76667 6.91666 9.075V12.4667C6.91666 12.775 7.22916 13.0833 7.54166 13.0833ZM12.2292 13.0833H14.1042C14.4167 13.0833 14.7292 12.775 14.7292 12.4667V2.90833C14.7292 2.6 14.4167 2.29167 14.1042 2.29167H12.2292C11.9167 2.29167 11.6042 2.6 11.6042 2.90833V12.4667C11.6042 12.775 11.9167 13.0833 12.2292 13.0833ZM24.8854 16.1667H3.79166V1.52083C3.79166 1.09495 3.44205 0.75 3.01041 0.75H1.44791C1.01627 0.75 0.666656 1.09495 0.666656 1.52083V17.7083C0.666656 18.5596 1.36636 19.25 2.22916 19.25H24.8854C25.317 19.25 25.6667 18.9051 25.6667 18.4792V16.9375C25.6667 16.5116 25.317 16.1667 24.8854 16.1667Z" fill="#BFBFBF"/>
</svg>
