<svg width="26" height="20" viewBox="0 0 26 20" fill="none" xmlns="http://www.w3.org/2000/svg">
<path d="M16.9166 13.0833H18.7916C19.1041 13.0833 19.4166 12.775 19.4166 12.4667V5.99167C19.4166 5.68333 19.1041 5.375 18.7916 5.375H16.9166C16.6041 5.375 16.2916 5.68333 16.2916 5.99167V12.4667C16.2916 12.775 16.6041 13.0833 16.9166 13.0833ZM21.6041 13.0833H23.4791C23.7916 13.0833 24.1041 12.775 24.1041 12.4667V1.36667C24.1041 1.05833 23.7916 0.75 23.4791 0.75H21.6041C21.2916 0.75 20.9791 1.05833 20.9791 1.36667V12.4667C20.9791 12.775 21.2916 13.0833 21.6041 13.0833ZM7.54163 13.0833H9.41663C9.72913 13.0833 10.0416 12.775 10.0416 12.4667V9.075C10.0416 8.76667 9.72913 8.45833 9.41663 8.45833H7.54163C7.22913 8.45833 6.91663 8.76667 6.91663 9.075V12.4667C6.91663 12.775 7.22913 13.0833 7.54163 13.0833ZM12.2291 13.0833H14.1041C14.4166 13.0833 14.7291 12.775 14.7291 12.4667V2.90833C14.7291 2.6 14.4166 2.29167 14.1041 2.29167H12.2291C11.9166 2.29167 11.6041 2.6 11.6041 2.90833V12.4667C11.6041 12.775 11.9166 13.0833 12.2291 13.0833ZM24.8854 16.1667H3.79163V1.52083C3.79163 1.09495 3.44202 0.75 3.01038 0.75H1.44788C1.01624 0.75 0.666626 1.09495 0.666626 1.52083V17.7083C0.666626 18.5596 1.36633 19.25 2.22913 19.25H24.8854C25.317 19.25 25.6666 18.9051 25.6666 18.4792V16.9375C25.6666 16.5116 25.317 16.1667 24.8854 16.1667Z" fill="#393939"/>
</svg>
