<svg width="25" height="26" viewBox="0 0 25 26" fill="none" xmlns="http://www.w3.org/2000/svg">
<g clip-path="url(#clip0_18_8)">
<path d="M10.8945 21.4834L8.51172 20.8438C8.26172 20.7788 8.12109 20.5367 8.19141 20.3054L13.5234 3.3145C13.5938 3.08323 13.8555 2.95315 14.1055 3.01819L16.4883 3.65779C16.7383 3.72283 16.8789 3.96494 16.8086 4.19621L11.4766 21.1871C11.4023 21.4184 11.1445 21.5521 10.8945 21.4834ZM6.44141 17.429L8.14062 15.7524C8.32031 15.5753 8.30859 15.2934 8.10938 15.1308L4.57031 12.2508L8.10938 9.37082C8.30859 9.20821 8.32422 8.92635 8.14062 8.74929L6.44141 7.0726C6.26562 6.89915 5.96875 6.8883 5.77734 7.05453L0.148438 11.9328C-0.0507813 12.1027 -0.0507813 12.3954 0.148438 12.5652L5.77734 17.4471C5.96875 17.6133 6.26562 17.6061 6.44141 17.429ZM19.2227 17.4507L24.8516 12.5688C25.0508 12.399 25.0508 12.1063 24.8516 11.9364L19.2227 7.05091C19.0352 6.8883 18.7383 6.89553 18.5586 7.06898L16.8594 8.74567C16.6797 8.92274 16.6914 9.20459 16.8906 9.3672L20.4297 12.2508L16.8906 15.1308C16.6914 15.2934 16.6758 15.5753 16.8594 15.7524L18.5586 17.429C18.7344 17.6061 19.0312 17.6133 19.2227 17.4507Z" fill="#393939"/>
</g>
<defs>
<clipPath id="clip0_18_8">
<rect width="25" height="25" fill="white" transform="translate(0 0.5)"/>
</clipPath>
</defs>
</svg>
