<svg width="22" height="20" viewBox="0 0 22 20" fill="none" xmlns="http://www.w3.org/2000/svg">
<path d="M18.8332 12.3125C18.8332 12.3125 16.5207 15.6602 16.5207 16.9375C16.5207 18.2148 17.5562 19.25 18.8332 19.25C20.1101 19.25 21.1457 18.2148 21.1457 16.9375C21.1457 15.6602 18.8332 12.3125 18.8332 12.3125ZM18.4946 8.59299L10.9902 1.08856C10.7643 0.862734 10.4684 0.75 10.1725 0.75C9.87656 0.75 9.58063 0.862734 9.35516 1.08856L6.40745 4.03628L3.29352 0.921992C3.06769 0.696162 2.70167 0.696162 2.4762 0.921992L1.65887 1.73932C1.43341 1.96515 1.43341 2.33117 1.65887 2.55664L4.77316 5.67057L1.34922 9.09451C-0.00540289 10.4488 -0.00540289 12.6449 1.34922 13.9995L5.58362 18.2339C6.26075 18.9111 7.14853 19.25 8.03595 19.25C8.92374 19.25 9.81116 18.9114 10.4883 18.2339L18.4942 10.228C18.9459 9.77634 18.9459 9.04465 18.4946 8.59299ZM14.2952 11.1573H2.7154C2.76454 11.0186 2.84439 10.869 2.98386 10.7299L3.45901 10.2547L6.40781 7.30594L8.52519 9.42332C8.97649 9.87462 9.70854 9.87462 10.1598 9.42332C10.6111 8.97202 10.6111 8.23997 10.1598 7.78867L8.04246 5.67129L10.1725 3.54126L16.0419 9.41067L14.2952 11.1573Z" fill="#393939"/>
</svg>
